<svg id="Layer_1" data-name="Layer 1" xmlns="http://www.w3.org/2000/svg" xmlns:xlink="http://www.w3.org/1999/xlink" viewBox="0 0 518.39 337.24"><defs><style>.cls-1{fill:url(#linear-gradient);}.cls-10,.cls-11,.cls-2{fill:#150b00;}.cls-2{opacity:0.25;}.cls-3{fill:url(#linear-gradient-2);}.cls-4{fill:url(#linear-gradient-3);}.cls-5{fill:url(#linear-gradient-4);}.cls-6{fill:url(#linear-gradient-5);}.cls-7{fill:url(#linear-gradient-6);}.cls-8{fill:url(#linear-gradient-7);}.cls-9{fill:url(#linear-gradient-8);}.cls-10{opacity:0.35;}.cls-11{opacity:0.15;}</style><linearGradient id="linear-gradient" x1="70.79" y1="98.95" x2="430.33" y2="98.95" gradientUnits="userSpaceOnUse"><stop offset="0" stop-color="#603302"/><stop offset="1" stop-color="#9b4f13"/></linearGradient><linearGradient id="linear-gradient-2" x1="-141.45" y1="306.63" x2="513.87" y2="146.97" gradientUnits="userSpaceOnUse"><stop offset="0" stop-color="#261400"/><stop offset="0.77" stop-color="#472800"/></linearGradient><linearGradient id="linear-gradient-3" x1="-137.12" y1="324.41" x2="518.2" y2="164.75" xlink:href="#linear-gradient-2"/><linearGradient id="linear-gradient-4" x1="-130.87" y1="350.04" x2="524.45" y2="190.38" xlink:href="#linear-gradient-2"/><linearGradient id="linear-gradient-5" x1="-122.47" y1="384.52" x2="532.85" y2="224.86" xlink:href="#linear-gradient-2"/><linearGradient id="linear-gradient-6" x1="-120.17" y1="393.99" x2="535.15" y2="234.33" xlink:href="#linear-gradient-2"/><linearGradient id="linear-gradient-7" x1="-115.92" y1="411.41" x2="539.4" y2="251.75" xlink:href="#linear-gradient-2"/><linearGradient id="linear-gradient-8" x1="357.17" y1="162.13" x2="183.56" y2="113.61" gradientUnits="userSpaceOnUse"><stop offset="0" stop-color="#fdeb52"/><stop offset="1" stop-color="#f5853f"/></linearGradient></defs><title>ranger_logo</title><path class="cls-1" d="M359,122V80.84c0-14.27-34.09-29-61.89-45.63C275.32,22.14,260,5,250.56,5c-10.83,0-26,17.61-50.64,33.61-24.13,15.69-57.8,29.63-57.8,42.23,0,8.72-.85,26.74-1.6,41.08-42.42-2.18-69.73-2-69.73,11.38,0,23,84.22,59.59,183.5,59.59s176-36.62,176-59.59C430.33,119.76,402.33,119.74,359,122Z" transform="translate(-5.3 -5)"/><path class="cls-2" d="M232.24,77.39c10.19-5.76,17-49.64,12.25-50.38S189.72,58.15,170,68.87C165.64,71.21,222.06,83.15,232.24,77.39Z" transform="translate(-5.3 -5)"/><path class="cls-3" d="M36.61,308.72a42.88,42.88,0,0,1-5.8,1.11,59.22,59.22,0,0,1-8.2.55,43,43,0,0,1-7.27-.55,12.53,12.53,0,0,1-5.44-2.21,10.62,10.62,0,0,1-3.4-4.51,19.49,19.49,0,0,1-1.2-7.46V240.4a15.6,15.6,0,0,1,1.57-7.27,16.84,16.84,0,0,1,4.51-5.43,32.42,32.42,0,0,1,7.27-4.33A74.53,74.53,0,0,1,28,220a78.89,78.89,0,0,1,10.31-2.3A69.89,69.89,0,0,1,49,216.83q8.84,0,14,3.41t5.16,11.14a17.7,17.7,0,0,1-.74,5.06A22.73,22.73,0,0,1,65.52,241c-2.58,0-5.22.13-7.92.37s-5.34.62-7.92,1.11-5,1-7.27,1.56a31.91,31.91,0,0,0-5.8,1.94Z" transform="translate(-5.3 -5)"/><path class="cls-4" d="M109,216.65a75.69,75.69,0,0,1,18.14,2,40.68,40.68,0,0,1,14,6.17,27.88,27.88,0,0,1,8.93,10.5,33.69,33.69,0,0,1,3.13,15V291.6a11.4,11.4,0,0,1-2.67,7.82,26.37,26.37,0,0,1-6.36,5.25q-12,7.18-33.7,7.18A76.72,76.72,0,0,1,92.87,310a41.55,41.55,0,0,1-13.45-5.52,25.41,25.41,0,0,1-8.65-9.39,27.78,27.78,0,0,1-3-13.26q0-12.7,7.55-19.52t23.39-8.47l24.12-2.58V250a7.88,7.88,0,0,0-4.69-7.64Q113.39,240,104.56,240a62.76,62.76,0,0,0-13.63,1.48,72.51,72.51,0,0,0-12,3.68,12.88,12.88,0,0,1-4-5.06A16.1,16.1,0,0,1,73.25,233a11.81,11.81,0,0,1,2.31-7.65,17.86,17.86,0,0,1,7.09-4.88,55,55,0,0,1,12.61-2.94A108.33,108.33,0,0,1,109,216.65ZM110.45,289a40.34,40.34,0,0,0,6.91-.65,16.88,16.88,0,0,0,5.62-1.74V271.89L109.72,273a20.4,20.4,0,0,0-8.47,2.21,6,6,0,0,0-3.32,5.52,7.34,7.34,0,0,0,2.85,6Q103.65,289,110.45,289Z" transform="translate(-5.3 -5)"/><path class="cls-5" d="M223,252.19q0-5.72-3.22-8.38T211,241.14a29.27,29.27,0,0,0-7.27.92,18.57,18.57,0,0,0-6.17,2.76v63.9a42.55,42.55,0,0,1-5.8,1.11,59.12,59.12,0,0,1-8.2.55,43,43,0,0,1-7.27-.55,12.53,12.53,0,0,1-5.44-2.21,10.7,10.7,0,0,1-3.4-4.51,19.49,19.49,0,0,1-1.2-7.46V240.4a14.21,14.21,0,0,1,2.12-8.1,22.22,22.22,0,0,1,5.8-5.71,52.54,52.54,0,0,1,15.75-7.18A75.3,75.3,0,0,1,211,216.65q20.81,0,32,9.11t11.24,25.32v57.64a42.55,42.55,0,0,1-5.8,1.11,59.12,59.12,0,0,1-8.2.55,43,43,0,0,1-7.27-.55,12.44,12.44,0,0,1-5.43-2.21,10.64,10.64,0,0,1-3.41-4.51,19.49,19.49,0,0,1-1.2-7.46Z" transform="translate(-5.3 -5)"/><path class="cls-6" d="M311.18,216.65a63.85,63.85,0,0,1,19.06,2.67,50.35,50.35,0,0,1,14.46,6.9,22.37,22.37,0,0,1,5.8,5.71,14.21,14.21,0,0,1,2.12,8.1v64.46a36.08,36.08,0,0,1-3.69,16.85,33.89,33.89,0,0,1-10,11.78A42.61,42.61,0,0,1,324,340a73.28,73.28,0,0,1-18.32,2.21q-16.77,0-26.34-4.51t-9.57-14.64a15.34,15.34,0,0,1,1.75-7.46,14.66,14.66,0,0,1,3.95-4.88,62,62,0,0,0,12.07,5,47.9,47.9,0,0,0,13.9,2q9.94,0,15.84-3.32t5.89-10.68v-2.94q-7.54,3.31-18.41,3.31A49.39,49.39,0,0,1,289,301.63a35.18,35.18,0,0,1-13.08-7.73,37.94,37.94,0,0,1-9-13.54,51.67,51.67,0,0,1-3.41-19.7,48.68,48.68,0,0,1,3.6-19.52A37,37,0,0,1,277,227.42a41.67,41.67,0,0,1,15.1-8.1A65,65,0,0,1,311.18,216.65Zm11.42,26.7a18.61,18.61,0,0,0-3.78-1.47,22,22,0,0,0-6.17-.74q-9,0-13.53,5.06t-4.51,14.46q0,10.68,4.51,15.38a15.26,15.26,0,0,0,11.51,4.69q7.55,0,12-3.5Z" transform="translate(-5.3 -5)"/><path class="cls-7" d="M413.2,311.85a64.68,64.68,0,0,1-20.16-3,45.69,45.69,0,0,1-16.21-9.12A42.24,42.24,0,0,1,366,284.42q-4-9.21-3.95-21.55,0-12.15,3.95-20.9a40.43,40.43,0,0,1,25.14-22.65A54.93,54.93,0,0,1,408,216.65a51.29,51.29,0,0,1,17.78,2.94,42.85,42.85,0,0,1,13.81,8.11,36.14,36.14,0,0,1,9,12.33,37.8,37.8,0,0,1,3.22,15.66q0,6.26-3.5,9.57t-9.76,4.24l-45.48,6.81a15.32,15.32,0,0,0,8.28,9.12,32.63,32.63,0,0,0,14.37,3,51.36,51.36,0,0,0,14.27-1.94A45.51,45.51,0,0,0,441,282a15.48,15.48,0,0,1,5,5.16,13.21,13.21,0,0,1,2,7q0,8.28-7.74,12.33A41,41,0,0,1,427,310.75,92.83,92.83,0,0,1,413.2,311.85ZM408,239.48A18.3,18.3,0,0,0,400.4,241a15.55,15.55,0,0,0-5.25,3.78,15.77,15.77,0,0,0-3,5.16,21.24,21.24,0,0,0-1.19,5.8l31.49-5.16a14,14,0,0,0-4.05-7.37Q414.85,239.49,408,239.48Z" transform="translate(-5.3 -5)"/><path class="cls-8" d="M492.2,308.72a42.24,42.24,0,0,1-5.8,1.11,59,59,0,0,1-8.19.55,43.25,43.25,0,0,1-7.28-.55,12.44,12.44,0,0,1-5.43-2.21,10.72,10.72,0,0,1-3.41-4.51,19.51,19.51,0,0,1-1.19-7.46V240.4a15.73,15.73,0,0,1,1.56-7.27A17,17,0,0,1,467,227.7a32.5,32.5,0,0,1,7.28-4.33,74,74,0,0,1,9.3-3.41,78.53,78.53,0,0,1,10.31-2.3,69.86,69.86,0,0,1,10.68-.83q8.85,0,14,3.41t5.15,11.14a17.69,17.69,0,0,1-.73,5.06,23.35,23.35,0,0,1-1.84,4.51c-2.58,0-5.22.13-7.92.37s-5.34.62-7.92,1.11-5,1-7.28,1.56a32.44,32.44,0,0,0-5.8,1.94Z" transform="translate(-5.3 -5)"/><path class="cls-9" d="M140.75,117.45c-.69,13.55-1.39,25.15-1.39,25.15s30,21.4,108.14,21.4S359,142.49,359,142.49v-25S306.82,137,250.56,137,140.75,117.45,140.75,117.45Z" transform="translate(-5.3 -5)"/><path class="cls-2" d="M270.53,77.39c-10.18-5.76-17-49.64-12.25-50.38s54.77,31.14,74.53,41.86C337.13,71.21,280.71,83.15,270.53,77.39Z" transform="translate(-5.3 -5)"/><path class="cls-10" d="M254.29,185.89C160.14,185.89,79.55,153,71.47,130a8,8,0,0,0-.68,3.33c0,23,84.22,59.59,183.5,59.59s176-36.62,176-59.59a8.2,8.2,0,0,0-.65-3.25C422.14,153,348.33,185.89,254.29,185.89Z" transform="translate(-5.3 -5)"/><path class="cls-11" d="M139.64,137.79c-.17,3-.28,4.81-.28,4.81s30,21.4,108.14,21.4S359,142.49,359,142.49v-5S325.66,159,247.5,159C173.64,159,142.81,139.89,139.64,137.79Z" transform="translate(-5.3 -5)"/></svg>