<svg xmlns="http://www.w3.org/2000/svg" viewBox="0 0 2499.7 1719.7"><defs><style>.cls-1{isolation:isolate;}.cls-2{fill:#472800;}.cls-3{fill:#f5853f;}.cls-4{fill:#74924d;mix-blend-mode:multiply;}.cls-5{font-size:819.59px;fill:#1a1a1a;font-family:Baloo-Regular, Baloo;}.cls-6{letter-spacing:-0.01em;}</style></defs><title>ranger_logo</title><g class="cls-1"><g id="Layer_1" data-name="Layer 1"><path class="cls-2" d="M2073.24,602c0,102.22-341.58,265.2-783.44,265.2S473.12,704.22,473.12,602s358.2-31.32,800.06-31.32S2073.24,499.79,2073.24,602Z" transform="translate(-23.33 -31)"/><path class="cls-2" d="M790.57,368.52c0-56.06,149.86-118.13,257.26-187.94C1157.37,109.39,1225,31,1273.19,31c42,0,110.17,76.29,207.17,134.45C1604.09,239.65,1755.8,305,1755.8,368.52V642.91S1607.41,707,1259.55,707s-481.25-63.6-481.25-63.6S790.57,438.51,790.57,368.52Z" transform="translate(-23.33 -31)"/><path class="cls-3" d="M784.49,531.45c-3.09,60.29-6.19,111.92-6.19,111.92S911.71,707,1259.55,707s496.25-64.06,496.25-64.06V531.45s-232.25,39.23-482.62,39.23S784.49,531.45,784.49,531.45Z" transform="translate(-23.33 -31)"/><path class="cls-4" d="M1187.84,359.78c51.42-34.15,86-294.17,61.84-298.53s-276.61,184.51-376.42,248C851.46,323.15,1136.42,393.92,1187.84,359.78Z" transform="translate(-23.33 -31)"/><path class="cls-4" d="M1369.32,357.39c-51.42-34.15-109.21-294.16-85-298.52s276.6,184.5,376.42,248C1682.52,320.76,1420.75,391.54,1369.32,357.39Z" transform="translate(-23.33 -31)"/><text class="cls-5" transform="translate(0 1290.23)"><tspan class="cls-6">r</tspan><tspan x="324.55" y="0">anger</tspan></text></g></g></svg>