<svg id="Layer_1" data-name="Layer 1" xmlns="http://www.w3.org/2000/svg" viewBox="0 0 2442.34 1438.58"><defs><style>.cls-1{fill:#472800;}.cls-2{fill:#f5853f;}.cls-3{fill:#150b00;}.cls-4{fill:#1a1a1a;}</style></defs><title>ranger_logo</title><path class="cls-1" d="M2073.24,602c0,102.22-341.58,265.2-783.44,265.2S473.12,704.22,473.12,602s358.2-31.32,800.06-31.32S2073.24,499.79,2073.24,602Z" transform="translate(-65.95 -31)"/><path class="cls-1" d="M790.57,368.52c0-56.06,149.86-118.13,257.26-187.94C1157.37,109.39,1225,31,1273.19,31c42,0,110.17,76.29,207.17,134.45C1604.09,239.65,1755.8,305,1755.8,368.52V642.91S1607.41,707,1259.55,707s-481.25-63.6-481.25-63.6S790.57,438.51,790.57,368.52Z" transform="translate(-65.95 -31)"/><path class="cls-2" d="M784.49,531.45c-3.09,60.29-6.19,111.92-6.19,111.92S911.71,707,1259.55,707s496.25-64.06,496.25-64.06V531.45s-232.25,39.23-482.62,39.23S784.49,531.45,784.49,531.45Z" transform="translate(-65.95 -31)"/><path class="cls-3" d="M1187.84,359.78c51.42-34.15,86-294.17,61.84-298.53s-276.61,184.51-376.42,248C851.46,323.15,1136.42,393.92,1187.84,359.78Z" transform="translate(-65.95 -31)"/><path class="cls-3" d="M1369.32,357.39c-51.42-34.15-109.21-294.16-85-298.52s276.6,184.5,376.42,248C1682.52,320.76,1420.75,391.54,1369.32,357.39Z" transform="translate(-65.95 -31)"/><path class="cls-4" d="M205.28,1320.41q-8.21,2.46-25.82,4.92a263.67,263.67,0,0,1-36.47,2.46,192.45,192.45,0,0,1-32.37-2.46q-14.36-2.46-24.18-9.84a47.07,47.07,0,0,1-15.16-20.08q-5.34-12.69-5.33-33.19V1016.34q0-18.84,7-32.37A75.89,75.89,0,0,1,93,959.79q13.1-10.63,32.37-19.26a335.51,335.51,0,0,1,41.39-15.16,349,349,0,0,1,45.89-10.24,309.47,309.47,0,0,1,47.54-3.69q39.35,0,62.29,15.16t22.95,49.58a79.05,79.05,0,0,1-3.28,22.54,102.63,102.63,0,0,1-8.2,20.08q-17.2,0-35.24,1.64t-35.24,4.92q-17.22,3.29-32.37,7a141.84,141.84,0,0,0-25.82,8.6Z" transform="translate(-65.95 -31)"/><path class="cls-4" d="M554.42,910.62q44.25,0,80.73,9t62.29,27.46a124,124,0,0,1,39.75,46.72q13.92,28.28,13.93,66.79v183.59q0,21.32-11.88,34.83A118.68,118.68,0,0,1,711,1302.38q-53.28,32-150,32-43.46,0-78.28-8.19t-59.82-24.59a112.73,112.73,0,0,1-38.53-41.8q-13.52-25.4-13.52-59,0-56.55,33.6-86.87t104.09-37.71l107.37-11.47V1059q0-23.76-20.9-34t-60.24-10.24a279.39,279.39,0,0,0-60.65,6.55,323.61,323.61,0,0,0-53.27,16.39q-10.66-7.37-18-22.53a71.37,71.37,0,0,1-7.37-31.56q0-21.3,10.24-34t31.56-21.72q23.76-9,56.14-13.11A487.68,487.68,0,0,1,554.42,910.62ZM561,1232.71a183.07,183.07,0,0,0,30.73-2.86q16.78-2.86,25-7.79v-65.57l-59,4.92q-23,1.65-37.7,9.84t-14.76,24.58A32.59,32.59,0,0,0,518,1222.47Q530.64,1232.73,561,1232.71Z" transform="translate(-65.95 -31)"/><path class="cls-4" d="M1088.78,1068.8q0-25.4-14.34-37.29t-38.93-11.89a129.94,129.94,0,0,0-32.38,4.1A82,82,0,0,0,975.68,1036v284.4q-8.2,2.46-25.82,4.92a263.67,263.67,0,0,1-36.47,2.46,192.54,192.54,0,0,1-32.37-2.46q-14.35-2.46-24.18-9.84a47.07,47.07,0,0,1-15.16-20.08q-5.34-12.69-5.33-33.19V1016.34q0-22.12,9.42-36.06t25.82-25.4q27.85-19.68,70.08-32t93.84-12.29q92.61,0,142.61,40.57t50,112.69v256.53q-8.2,2.46-25.82,4.92a263.57,263.57,0,0,1-36.47,2.46,192.54,192.54,0,0,1-32.37-2.46q-14.35-2.46-24.18-9.84a47.15,47.15,0,0,1-15.16-20.08q-5.34-12.69-5.33-33.19Z" transform="translate(-65.95 -31)"/><path class="cls-4" d="M1508.4,910.62q46.72,0,84.83,11.88t64.34,30.74q16.38,11.47,25.81,25.4t9.43,36.07v286.85q0,43.43-16.39,75a151,151,0,0,1-44.67,52.46q-28.27,20.9-66.38,30.73t-81.55,9.84q-74.6,0-117.2-20.08T1324,1384.34q0-18.87,7.78-33.19t17.62-21.72a276.12,276.12,0,0,0,53.69,22.12,213.28,213.28,0,0,0,61.88,9q44.25,0,70.48-14.75t26.23-47.54v-13.11q-33.62,14.74-82,14.75a220.34,220.34,0,0,1-70.08-11.06,156.74,156.74,0,0,1-58.19-34.43q-25-23.36-40.16-60.24t-15.16-87.69q0-50,16-86.88t44.26-61.06q28.28-24.16,67.21-36.06T1508.4,910.62Zm50.82,118.84q-5.74-3.27-16.8-6.56t-27.46-3.28q-40.17,0-60.24,22.54t-20.08,64.34q0,47.54,20.08,68.43t51.23,20.9q33.58,0,53.27-15.57Z" transform="translate(-65.95 -31)"/><path class="cls-4" d="M1989.49,1334.34q-48.37,0-89.75-13.52t-72.12-40.57q-30.73-27-48.35-68t-17.63-95.9q0-54.09,17.63-93t46.3-63.93a185.25,185.25,0,0,1,65.57-36.88,244.72,244.72,0,0,1,75.4-11.88q43.44,0,79.09,13.11t61.47,36.06a160.75,160.75,0,0,1,40.16,54.92q14.32,31.95,14.34,69.66,0,27.87-15.57,42.62t-43.44,18.85l-202.44,30.32q9,27,36.89,40.57t63.92,13.53a228.67,228.67,0,0,0,63.52-8.61q29.91-8.61,48.77-20.08a68.85,68.85,0,0,1,22.13,23,58.87,58.87,0,0,1,9,31.14q0,36.88-34.42,54.92-26.23,13.93-59,18.85A415.42,415.42,0,0,1,1989.49,1334.34Zm-23-322.09q-19.66,0-34,6.55a68.65,68.65,0,0,0-23.36,16.8,69.53,69.53,0,0,0-13.52,23,94.28,94.28,0,0,0-5.33,25.82l140.15-22.95q-2.46-16.38-18-32.78T1966.54,1012.25Z" transform="translate(-65.95 -31)"/><path class="cls-4" d="M2368.13,1320.41q-8.19,2.46-25.81,4.92a263.78,263.78,0,0,1-36.47,2.46,192.66,192.66,0,0,1-32.38-2.46q-14.34-2.46-24.18-9.84a47.23,47.23,0,0,1-15.16-20.08q-5.34-12.69-5.32-33.19V1016.34q0-18.84,7-32.37a76.15,76.15,0,0,1,20.08-24.18q13.11-10.63,32.38-19.26a335.51,335.51,0,0,1,41.39-15.16,349,349,0,0,1,45.89-10.24,309.27,309.27,0,0,1,47.54-3.69q39.33,0,62.29,15.16t22.95,49.58a79.41,79.41,0,0,1-3.28,22.54,102.63,102.63,0,0,1-8.2,20.08q-17.2,0-35.24,1.64t-35.24,4.92q-17.22,3.29-32.38,7a142.37,142.37,0,0,0-25.82,8.6Z" transform="translate(-65.95 -31)"/></svg>